# xmcd
#
# Track frame offsets:
#	150
#	13017
#	22342
#	33916
#	46078
#	59649
#	72251
#	84561
#	96004
#	107741
#	120769
#	133070
#	143709
#	151428
#	163912
#	175754
#
# Disc length: 2490 seconds
#
# Revision: 0
# Processed by: cddbd v1.5.2PL0 Copyright (c) Steve Scherf et al.
# Submitted via: dBpowerAMP V4.0
#
DISCID=d409b810
DTITLE=Big Mama Thornton - Big Mama Thornton Blues
DYEAR=1900
DGENRE=Blues
TTITLE0=Hound Dog
TTITLE1=They Call Me Big Mama
TTITLE2=How Come
TTITLE3=The Fish
TTITLE4=Walking Blues
TTITLE5=Cotton Picking Blues
TTITLE6=The Big Change
TTITLE7=Mischievous Boogie
TTITLE8=Rock A Bye Baby
TTITLE9=Nightmare
TTITLE10=Laugh, Laugh, Laugh
TTITLE11=I Ain't No Fool Either
TTITLE12=I Smell A Rat
TTITLE13=Let Your Tears Fall Baby
TTITLE14=I've Searched The World Over
TTITLE15=Stop A Hoppin' On Me
EXTD=Big Mama Thornton Blues
EXTT0=
EXTT1=
EXTT2=
EXTT3=
EXTT4=
EXTT5=
EXTT6=
EXTT7=
EXTT8=
EXTT9=
EXTT10=
EXTT11=
EXTT12=
EXTT13=
EXTT14=
EXTT15=
PLAYORDER=
